<svg xmlns="http://www.w3.org/2000/svg" viewBox="0 0 330.747 225.685">
  <g id="Icons" transform="translate(0 4)">
    <g id="Outlined" transform="translate(0 -4)">
      <g id="File" transform="translate(0 0)">
        <g id="Outlined-_-File-_-cloud_upload" data-name="Outlined-/-File-/-cloud_upload" transform="translate(0 0)">
          <g id="Group_18" data-name="Group 18">
            <path id="Path" d="M0,0H330.747V225.685H0Z" fill="none" fill-rule="evenodd"/>
            <path id="_-Icon-Color" data-name="🔹-Icon-Color" d="M266.665,86.176C257.294,39.238,215.537,4,165.374,4A103.464,103.464,0,0,0,73.729,58.965C32.248,63.319,0,98.013,0,140.053c0,45.034,37.071,81.632,82.687,81.632H261.841c38.036,0,68.906-30.476,68.906-68.027C330.747,117.74,302.5,88.625,266.665,86.176Zm-4.823,108.3H82.687c-30.456,0-55.125-24.354-55.125-54.421A54.316,54.316,0,0,1,76.623,86.04l14.746-1.5,6.891-12.925a75.488,75.488,0,0,1,67.114-40.408c36.107,0,67.252,25.306,74.28,60.272l4.134,20.408,21.085,1.5c21.5,1.361,38.312,19.184,38.312,40.272C303.185,176.107,284.58,194.474,261.841,194.474ZM110.249,126.448h35.142v40.816h39.965V126.448H220.5L165.374,72.027Z" fill="#0065c5" fill-rule="evenodd"/>
          </g>
        </g>
      </g>
    </g>
  </g>
</svg>
