<svg xmlns="http://www.w3.org/2000/svg" viewBox="0 0 140 140">
  <g id="layer1" transform="translate(-107.129 -129.761)">
    <path id="path4642" d="M177.129,129.761c-19.009,0-21.392.121-28.857.428a51.333,51.333,0,0,0-16.98,3.238,35.762,35.762,0,0,0-20.475,20.479,51.433,51.433,0,0,0-3.259,17c-.341,7.467-.429,9.85-.429,28.862s.088,21.4.429,28.862a51.305,51.305,0,0,0,3.259,16.983A35.756,35.756,0,0,0,131.292,266.1a51.292,51.292,0,0,0,16.98,3.26c7.465.34,9.848.406,28.857.406s21.392-.11,28.857-.406a51.435,51.435,0,0,0,17-3.26,35.8,35.8,0,0,0,20.453-20.478,51.3,51.3,0,0,0,3.259-16.983c.341-7.467.429-9.849.429-28.862s-.088-21.4-.429-28.862a51.444,51.444,0,0,0-3.259-17,35.807,35.807,0,0,0-20.453-20.479,51.474,51.474,0,0,0-17-3.238C198.521,129.849,196.138,129.761,177.129,129.761Zm0,12.608c18.689,0,20.9.11,28.278.406,6.824.307,10.547,1.465,13.014,2.423a23.167,23.167,0,0,1,13.271,13.273c.958,2.467,2.111,6.191,2.423,13.015.336,7.382.407,9.592.407,28.284s-.077,20.9-.407,28.284c-.312,6.825-1.464,10.528-2.423,12.994a23.125,23.125,0,0,1-13.271,13.294c-2.466.955-6.19,2.091-13.014,2.4-7.38.34-9.588.406-28.278.406s-20.9-.11-28.279-.406c-6.824-.307-10.526-1.444-12.992-2.4a23.08,23.08,0,0,1-13.292-13.294c-.958-2.467-2.09-6.169-2.4-12.994-.336-7.381-.407-9.591-.407-28.284s.077-20.9.407-28.284c.312-6.824,1.443-10.549,2.4-13.015A23.123,23.123,0,0,1,135.858,145.2c2.466-.955,6.168-2.111,12.992-2.423C156.231,142.435,158.44,142.369,177.129,142.369ZM214.5,153.991a8.405,8.405,0,1,0,8.4,8.405A8.409,8.409,0,0,0,214.5,153.991Zm-37.369,9.821a35.949,35.949,0,1,0,35.954,35.96A35.948,35.948,0,0,0,177.129,163.812Zm0,12.63a23.33,23.33,0,1,1-23.326,23.33A23.325,23.325,0,0,1,177.129,176.442Z" transform="translate(0 0)" fill="#0065c5"/>
  </g>
</svg>
