<svg xmlns="http://www.w3.org/2000/svg" viewBox="0 0 140 140">
  <path id="linkedin-brands" d="M130,32H9.969A10.043,10.043,0,0,0,0,42.094V161.906A10.043,10.043,0,0,0,9.969,172H130a10.07,10.07,0,0,0,10-10.094V42.094A10.07,10.07,0,0,0,130,32ZM42.313,152H21.563V85.188H42.344V152ZM31.938,76.062A12.031,12.031,0,1,1,43.969,64.031,12.036,12.036,0,0,1,31.938,76.062ZM120.094,152H99.344V119.5c0-7.75-.156-17.719-10.781-17.719-10.813,0-12.469,8.437-12.469,17.156V152H55.344V85.188H75.25v9.125h.281c2.781-5.25,9.562-10.781,19.656-10.781,21,0,24.906,13.844,24.906,31.844Z" transform="translate(0 -32)" fill="#0065c5"/>
</svg>
