<svg xmlns="http://www.w3.org/2000/svg" width="48.906" height="39.736" viewBox="0 0 48.906 39.736">
  <path id="list-ul-solid" d="M4.585,48A4.585,4.585,0,1,0,9.17,52.585,4.585,4.585,0,0,0,4.585,48Zm0,15.283A4.585,4.585,0,1,0,9.17,67.868a4.585,4.585,0,0,0-4.585-4.585Zm0,15.283A4.585,4.585,0,1,0,9.17,83.151a4.585,4.585,0,0,0-4.585-4.585Zm42.793,1.528H16.812a1.528,1.528,0,0,0-1.528,1.528V84.68a1.528,1.528,0,0,0,1.528,1.528H47.378a1.528,1.528,0,0,0,1.528-1.528V81.623A1.528,1.528,0,0,0,47.378,80.095Zm0-30.566H16.812a1.528,1.528,0,0,0-1.528,1.528v3.057a1.528,1.528,0,0,0,1.528,1.528H47.378a1.528,1.528,0,0,0,1.528-1.528V51.057A1.528,1.528,0,0,0,47.378,49.528Zm0,15.283H16.812a1.528,1.528,0,0,0-1.528,1.528V69.4a1.528,1.528,0,0,0,1.528,1.528H47.378A1.528,1.528,0,0,0,48.906,69.4V66.34A1.528,1.528,0,0,0,47.378,64.812Z" transform="translate(0 -48)" />
</svg>
