<svg xmlns="http://www.w3.org/2000/svg" width="53.801" height="41" viewBox="0 0 53.801 41">
  <path id="sign-out-alt-solid" d="M53.056,86.292,35.122,104.227a2.566,2.566,0,0,1-4.377-1.815V92.164H16.226A2.556,2.556,0,0,1,13.664,89.6V79.353a2.556,2.556,0,0,1,2.562-2.562H30.745V66.543a2.568,2.568,0,0,1,4.377-1.815L53.056,82.663A2.584,2.584,0,0,1,53.056,86.292Zm-32.56,17.4v-4.27a1.285,1.285,0,0,0-1.281-1.281H10.248a3.412,3.412,0,0,1-3.416-3.416v-20.5a3.412,3.412,0,0,1,3.416-3.416h8.967A1.285,1.285,0,0,0,20.5,69.532v-4.27a1.285,1.285,0,0,0-1.281-1.281H10.248A10.251,10.251,0,0,0,0,74.229v20.5a10.251,10.251,0,0,0,10.248,10.248h8.967A1.285,1.285,0,0,0,20.5,103.693Z" transform="translate(0 -63.979)" />
</svg>
