<svg xmlns="http://www.w3.org/2000/svg" width="52.911" height="44.556" viewBox="0 0 52.911 44.556">
  <path id="analytics" d="M36.2,27.848h-5.57a2.785,2.785,0,0,0-2.785,2.785V41.772a2.785,2.785,0,0,0,2.785,2.785H36.2a2.785,2.785,0,0,0,2.785-2.785V30.632A2.785,2.785,0,0,0,36.2,27.848ZM34.81,40.379H32.025V32.025H34.81ZM50.126,16.709h-5.57a2.785,2.785,0,0,0-2.785,2.785V41.772a2.785,2.785,0,0,0,2.785,2.785h5.57a2.785,2.785,0,0,0,2.785-2.785V19.493A2.785,2.785,0,0,0,50.126,16.709ZM48.733,40.379H45.949V20.886h2.785ZM22.278,16.709h-5.57a2.785,2.785,0,0,0-2.785,2.785V41.772a2.785,2.785,0,0,0,2.785,2.785h5.57a2.785,2.785,0,0,0,2.785-2.785V19.493A2.785,2.785,0,0,0,22.278,16.709ZM20.886,40.379H18.1V20.886h2.785ZM8.354,30.632H2.785A2.785,2.785,0,0,0,0,33.417v8.354a2.785,2.785,0,0,0,2.785,2.785h5.57a2.785,2.785,0,0,0,2.785-2.785V33.417A2.785,2.785,0,0,0,8.354,30.632ZM6.962,40.379H4.177V34.81H6.962ZM5.57,22.278a4.125,4.125,0,0,0,4.022-5.246L18.425,8.2a3.926,3.926,0,0,0,2.581-.138L29.3,14.7a4.128,4.128,0,0,0-.062.618,4.177,4.177,0,0,0,8.354,0,4.235,4.235,0,0,0-.062-.617l8.3-6.637a4.171,4.171,0,1,0-2.666-3.885,4.235,4.235,0,0,0,.062.617l-8.3,6.637a4.047,4.047,0,0,0-3.025,0L23.609,4.8a4.128,4.128,0,0,0,.062-.618,4.177,4.177,0,1,0-8.354,0,4.166,4.166,0,0,0,.155,1.069L6.638,14.079a4.166,4.166,0,0,0-1.069-.155,4.177,4.177,0,1,0,0,8.354Z" />
</svg>
