<svg xmlns="http://www.w3.org/2000/svg" width="47.253" height="42" viewBox="0 0 47.253 42">
  <path id="upload" d="M43.316,23.661H31.5V21.036h5.25a3.937,3.937,0,0,0,2.781-6.719L26.408,1.191a3.939,3.939,0,0,0-5.57,0L7.712,14.317A3.941,3.941,0,0,0,10.5,21.036h5.25v2.625H3.938A3.939,3.939,0,0,0,0,27.6V38.1a3.939,3.939,0,0,0,3.938,3.938H43.316A3.939,3.939,0,0,0,47.253,38.1V27.6A3.939,3.939,0,0,0,43.316,23.661ZM10.5,17.1,23.627,3.972,36.753,17.1H27.565V30.224H19.689V17.1Zm32.815,21H3.938V27.6H15.751v2.625a3.939,3.939,0,0,0,3.938,3.938h7.876A3.939,3.939,0,0,0,31.5,30.224V27.6H43.316Zm-3.281-5.25a1.969,1.969,0,1,1-1.969-1.969A1.964,1.964,0,0,1,40.034,32.849Z" transform="translate(0 -0.037)" />
</svg>
