<svg xmlns="http://www.w3.org/2000/svg"  viewBox="0 0 140 140">
  <path id="whatsappIcon" d="M119.031,52.344A69.4,69.4,0,0,0,9.844,136.063L0,172l36.781-9.656a69.164,69.164,0,0,0,33.156,8.437h.031c38.219,0,70.031-31.125,70.031-69.375,0-18.531-7.875-35.938-20.969-49.063ZM69.969,159.094a57.56,57.56,0,0,1-29.375-8.031l-2.094-1.25-21.813,5.719L22.5,134.25l-1.375-2.187A57.668,57.668,0,0,1,110.75,60.625C121.625,71.531,128.313,86,128.281,101.406,128.281,133.219,101.75,159.094,69.969,159.094Zm31.625-43.187c-1.719-.875-10.25-5.063-11.844-5.625-1.594-.594-2.75-.875-3.906.875s-4.469,5.625-5.5,6.813c-1,1.156-2.031,1.313-3.75.437C66.406,113.313,59.719,109.312,53,97.781c-1.781-3.062,1.781-2.844,5.094-9.469a3.212,3.212,0,0,0-.156-3.031c-.437-.875-3.906-9.406-5.344-12.875-1.406-3.375-2.844-2.906-3.906-2.969-1-.062-2.156-.062-3.312-.062a6.421,6.421,0,0,0-4.625,2.156A19.479,19.479,0,0,0,34.687,86c0,8.531,6.219,16.781,7.063,17.938.875,1.156,12.219,18.656,29.625,26.188,11,4.75,15.313,5.156,20.813,4.344,3.344-.5,10.25-4.187,11.688-8.25s1.438-7.531,1-8.25C104.469,117.188,103.313,116.75,101.594,115.906Z" transform="translate(0 -32)" fill="#0057b5"/>
</svg>
